<svg width="208" height="32" viewBox="0 0 208 32" fill="none" xmlns="http://www.w3.org/2000/svg">
<path d="M0.928 2.6V1.6H-0.072V2.6H0.928ZM9.696 2.6H10.696V1.6H9.696V2.6ZM9.696 3.528L10.0471 4.46433L10.696 4.221V3.528H9.696ZM8.16 4.04L8.40254 5.01014L8.42137 5.00543L8.44 5L8.16 4.04ZM6.624 4.328L6.49996 3.33572L5.624 3.44522V4.328H6.624ZM6.624 23.336H5.624V24.336H6.624V23.336ZM13.984 23.336V24.336H14.6826L14.9229 23.6801L13.984 23.336ZM15.872 18.184V17.184H15.1734L14.9331 17.8399L15.872 18.184ZM16.704 18.184L17.694 18.0426L17.5713 17.184H16.704V18.184ZM16.864 19.752L15.8665 19.8232L15.8679 19.8429L15.8701 19.8624L16.864 19.752ZM16.992 21.576L15.9926 21.6093L15.9931 21.6271L15.9944 21.6448L16.992 21.576ZM17.024 25V26H17.9796L18.023 25.0454L17.024 25ZM0.928 25H-0.072V26H0.928V25ZM0.928 24.072L0.511345 23.1629L-0.072 23.4303V24.072H0.928ZM2.336 23.56L2.57854 24.5301L2.336 23.56ZM3.552 23.304L3.7164 24.2904L4.552 24.1511V23.304H3.552ZM3.552 4.328H4.552V3.4869L3.72334 3.34279L3.552 4.328ZM2.144 4.008L1.82777 4.95668L1.84839 4.96355L1.86928 4.96952L2.144 4.008ZM0.928 3.528H-0.072V4.16261L0.502205 4.43282L0.928 3.528ZM0.928 3.6H9.696V1.6H0.928V3.6ZM8.696 2.6V3.528H10.696V2.6H8.696ZM9.34488 2.59167C8.85569 2.77511 8.36741 2.93784 7.88 3.08L8.44 5C8.97659 4.84349 9.51231 4.66488 10.0471 4.46433L9.34488 2.59167ZM7.91747 3.06986C7.4436 3.18832 6.97116 3.27682 6.49996 3.33572L6.74804 5.32028C7.30084 5.25118 7.8524 5.14767 8.40254 5.01014L7.91747 3.06986ZM5.624 4.328V23.336H7.624V4.328H5.624ZM6.624 24.336H13.984V22.336H6.624V24.336ZM14.9229 23.6801L16.8109 18.5281L14.9331 17.8399L13.0451 22.9919L14.9229 23.6801ZM15.872 19.184H16.704V17.184H15.872V19.184ZM15.7141 18.3254C15.7739 18.7441 15.8251 19.2424 15.8665 19.8232L17.8615 19.6808C17.8176 19.0669 17.7621 18.5199 17.694 18.0426L15.7141 18.3254ZM15.8701 19.8624C15.931 20.4103 15.972 20.9924 15.9926 21.6093L17.9914 21.5427C17.9693 20.8796 17.925 20.2457 17.8579 19.6416L15.8701 19.8624ZM15.9944 21.6448C16.0355 22.2414 16.056 22.8265 16.056 23.4H18.056C18.056 22.7789 18.0338 22.1479 17.9896 21.5072L15.9944 21.6448ZM16.056 23.4C16.056 23.986 16.0455 24.5038 16.025 24.9546L18.023 25.0454C18.0451 24.5575 18.056 24.0086 18.056 23.4H16.056ZM17.024 24H0.928V26H17.024V24ZM1.928 25V24.072H-0.072V25H1.928ZM1.34465 24.9811C1.81535 24.7653 2.22557 24.6184 2.57854 24.5301L2.09346 22.5899C1.5931 22.7149 1.06465 22.9093 0.511345 23.1629L1.34465 24.9811ZM2.57854 24.5301C2.98263 24.4291 3.36175 24.3495 3.7164 24.2904L3.3876 22.3176C2.97425 22.3865 2.54271 22.4775 2.09346 22.5899L2.57854 24.5301ZM4.552 23.304V4.328H2.552V23.304H4.552ZM3.72334 3.34279C3.26516 3.2631 2.83047 3.16412 2.41872 3.04648L1.86928 4.96952C2.35353 5.10788 2.8575 5.22223 3.38066 5.31321L3.72334 3.34279ZM2.46023 3.05932C2.04321 2.92031 1.67523 2.77444 1.3538 2.62318L0.502205 4.43282C0.906103 4.62289 1.3488 4.79702 1.82777 4.95668L2.46023 3.05932ZM1.928 3.528V2.6H-0.072V3.528H1.928ZM30.7145 22.024L29.7164 22.0864V22.0864L30.7145 22.024ZM30.7785 23.112L29.78 23.1675L29.8254 23.9843L30.6351 24.1017L30.7785 23.112ZM32.9865 23.432H33.9865V22.5665L33.1299 22.4423L32.9865 23.432ZM32.9865 24.104L33.4479 24.9912L33.9865 24.7111V24.104H32.9865ZM31.1945 24.84L30.8875 23.8882L30.8783 23.8913L31.1945 24.84ZM29.3385 25.32V26.32H29.4271L29.5143 26.3044L29.3385 25.32ZM28.5385 25.32L27.6214 25.7187L27.8829 26.32H28.5385V25.32ZM28.1545 23.72L27.157 23.7912L27.1572 23.7939L28.1545 23.72ZM28.0585 21.768L29.058 21.7377L29.0287 20.768H28.0585V21.768ZM27.8985 21.768V20.768H27.0787L26.9179 21.5719L27.8985 21.768ZM27.3865 23.08L26.5183 22.5839L26.5142 22.5909L26.5103 22.5981L27.3865 23.08ZM26.4265 24.232L25.7824 23.4671L25.7721 23.4757L25.7621 23.4846L26.4265 24.232ZM25.0505 25.064L25.4219 25.9925L25.0505 25.064ZM20.0265 24.2L19.3288 24.9165L19.3382 24.9255L20.0265 24.2ZM19.3865 18.696L18.5416 18.1609L18.5369 18.1686L19.3865 18.696ZM21.1465 17.192L20.7195 16.2878L21.1465 17.192ZM23.9945 16.424L24.1254 17.4154L24.1346 17.4142L24.1438 17.4128L23.9945 16.424ZM27.9305 16.04L27.9875 17.0384L28.8465 16.9893L28.9262 16.1326L27.9305 16.04ZM27.9945 13.576L26.9949 13.6046L26.9953 13.6196L26.9962 13.6347L27.9945 13.576ZM27.6425 11.688L26.7016 12.0267L26.71 12.0499L26.7194 12.0726L27.6425 11.688ZM26.7465 10.472L26.1326 11.2614L26.1566 11.2801L26.1818 11.2973L26.7465 10.472ZM24.1865 10.088L24.2452 11.0863L24.2711 11.0847L24.2969 11.0819L24.1865 10.088ZM23.0985 10.344L22.7178 9.41932L22.323 9.58185L22.1674 9.97931L23.0985 10.344ZM21.5945 14.184V15.184H22.2768L22.5256 14.5487L21.5945 14.184ZM20.7625 14.184L19.8138 14.5002L20.0417 15.184H20.7625V14.184ZM20.1865 12.2L19.2096 12.4137L19.2128 12.4282L19.2164 12.4425L20.1865 12.2ZM19.8985 10.184L19.3807 9.3285L18.8615 9.64275L18.9006 10.2484L19.8985 10.184ZM22.5865 9.032L22.3199 8.06817L22.3145 8.06969L22.5865 9.032ZM28.5065 9.096L28.0593 9.99043L28.0769 9.99925L28.0949 10.0074L28.5065 9.096ZM30.7465 17.416L29.7479 17.3625L29.7475 17.3711L29.7472 17.3797L30.7465 17.416ZM25.9145 23.08L25.4488 22.1951L25.9145 23.08ZM26.9385 22.312L26.2057 21.6315L26.9385 22.312ZM27.6105 21.416L28.4787 21.9121L28.486 21.8995L28.4929 21.8866L27.6105 21.416ZM27.9625 20.616L28.9203 20.9033L28.9625 20.7628V20.616H27.9625ZM27.9625 17.256H28.9625V16.256H27.9625V17.256ZM24.9225 17.448L24.7624 16.4609L24.9225 17.448ZM22.1385 19.112L23.0601 19.5001L23.0636 19.4918L23.067 19.4834L22.1385 19.112ZM22.5865 22.664L21.8493 23.3397L21.8565 23.3476L21.8639 23.3552L22.5865 22.664ZM29.6825 20.808C29.6825 21.2911 29.6934 21.7183 29.7164 22.0864L31.7126 21.9616C31.6929 21.6471 31.6825 21.2636 31.6825 20.808H29.6825ZM29.7164 22.0864C29.7376 22.4251 29.7588 22.7855 29.78 23.1675L31.777 23.0565C31.7555 22.6705 31.734 22.3055 31.7126 21.9616L29.7164 22.0864ZM30.6351 24.1017L32.8431 24.4217L33.1299 22.4423L30.9219 22.1223L30.6351 24.1017ZM31.9865 23.432V24.104H33.9865V23.432H31.9865ZM32.5251 23.2168C32.0483 23.4647 31.5037 23.6895 30.8875 23.8883L31.5015 25.7917C32.208 25.5638 32.858 25.2979 33.4479 24.9912L32.5251 23.2168ZM30.8783 23.8913C30.2792 24.091 29.7075 24.2383 29.1627 24.3356L29.5143 26.3044C30.1642 26.1884 30.8298 26.0156 31.5107 25.7887L30.8783 23.8913ZM29.3385 24.32H28.5385V26.32H29.3385V24.32ZM29.4556 24.9213C29.2905 24.5415 29.1868 24.119 29.1518 23.6461L27.1572 23.7939C27.2075 24.473 27.3599 25.1172 27.6214 25.7187L29.4556 24.9213ZM29.152 23.6488C29.1104 23.0672 29.079 22.4303 29.058 21.7377L27.059 21.7983C27.0806 22.5137 27.1133 23.1782 27.157 23.7912L29.152 23.6488ZM28.0585 20.768H27.8985V22.768H28.0585V20.768ZM26.9179 21.5719C26.8572 21.8757 26.7306 22.2123 26.5183 22.5839L28.2547 23.5761C28.5544 23.0517 28.7692 22.5137 28.8791 21.9641L26.9179 21.5719ZM26.5103 22.5981C26.3399 22.9078 26.1019 23.198 25.7824 23.4671L27.0706 24.9969C27.5617 24.5833 27.9637 24.1055 28.2627 23.5619L26.5103 22.5981ZM25.7621 23.4846C25.4742 23.7406 25.1176 23.9601 24.6791 24.1355L25.4219 25.9925C26.05 25.7412 26.6108 25.4061 27.0909 24.9794L25.7621 23.4846ZM24.6791 24.1355C24.2839 24.2936 23.8054 24.384 23.2265 24.384V26.384C24.0129 26.384 24.7504 26.2611 25.4219 25.9925L24.6791 24.1355ZM23.2265 24.384C22.144 24.384 21.3356 24.0635 20.7148 23.4745L19.3382 24.9255C20.3814 25.9151 21.7063 26.384 23.2265 26.384V24.384ZM20.7241 23.4835C20.1329 22.9079 19.8105 22.1449 19.8105 21.096H17.8105C17.8105 22.6071 18.2988 23.9135 19.3289 24.9165L20.7241 23.4835ZM19.8105 21.096C19.8105 20.2382 19.979 19.6377 20.2361 19.2234L18.5369 18.1686C18.026 18.9917 17.8105 19.9911 17.8105 21.096H19.8105ZM20.2313 19.2311C20.5232 18.7701 20.9556 18.3881 21.5735 18.0962L20.7195 16.2878C19.8014 16.7213 19.0604 17.3419 18.5417 18.1609L20.2313 19.2311ZM21.5735 18.0962C22.2221 17.79 23.0646 17.5555 24.1254 17.4154L23.8636 15.4326C22.6631 15.5912 21.6069 15.8687 20.7195 16.2878L21.5735 18.0962ZM24.1438 17.4128C25.2362 17.2479 26.5163 17.1224 27.9875 17.0384L27.8735 15.0416C26.3581 15.1282 25.0141 15.2588 23.8452 15.4352L24.1438 17.4128ZM28.9262 16.1326C29.015 15.1776 29.0391 14.3043 28.9928 13.5173L26.9962 13.6347C27.0353 14.2983 27.0166 15.0677 26.9348 15.9474L28.9262 16.1326ZM28.9941 13.5474C28.9704 12.7182 28.8392 11.9601 28.5656 11.3034L26.7194 12.0726C26.8725 12.4399 26.9759 12.9405 26.9949 13.6046L28.9941 13.5474ZM28.5834 11.3493C28.3316 10.6498 27.9157 10.0603 27.3112 9.64669L26.1818 11.2973C26.388 11.4384 26.5694 11.6595 26.7016 12.0267L28.5834 11.3493ZM27.3604 9.68265C26.7525 9.20978 26.0025 9.024 25.2105 9.024V11.024C25.6985 11.024 25.9725 11.1369 26.1326 11.2614L27.3604 9.68265ZM25.2105 9.024C24.8661 9.024 24.4867 9.04849 24.0761 9.09412L24.2969 11.0819C24.6543 11.0422 24.9576 11.024 25.2105 11.024V9.024ZM24.1278 9.08972C23.6459 9.11807 23.1748 9.23114 22.7178 9.41932L23.4792 11.2687C23.7476 11.1582 24.0017 11.1006 24.2452 11.0863L24.1278 9.08972ZM22.1674 9.97931L20.6634 13.8193L22.5256 14.5487L24.0296 10.7087L22.1674 9.97931ZM21.5945 13.184H20.7625V15.184H21.5945V13.184ZM21.7112 13.8678C21.5063 13.2531 21.3214 12.6164 21.1566 11.9575L19.2164 12.4425C19.393 13.149 19.5921 13.8349 19.8138 14.5002L21.7112 13.8678ZM21.1634 11.9863C21.0242 11.3502 20.9357 10.7281 20.8964 10.1196L18.9006 10.2484C18.9467 10.9626 19.0501 11.6845 19.2096 12.4137L21.1634 11.9863ZM20.4163 11.0395C21.1446 10.5987 21.957 10.2491 22.8585 9.99431L22.3145 8.06969C21.2534 8.36958 20.2738 8.78796 19.3807 9.3285L20.4163 11.0395ZM22.8531 9.99581C23.7558 9.74614 24.7738 9.616 25.9145 9.616V7.616C24.6232 7.616 23.4226 7.7632 22.3199 8.06819L22.8531 9.99581ZM25.9145 9.616C26.9208 9.616 27.6117 9.76661 28.0593 9.99043L28.9537 8.20157C28.1213 7.78539 27.0842 7.616 25.9145 7.616V9.616ZM28.0949 10.0074C28.6268 10.2476 28.9715 10.5376 29.1896 10.8511L30.8314 9.70893C30.3668 9.0411 29.7088 8.54174 28.9181 8.18463L28.0949 10.0074ZM29.1896 10.8511C29.4473 11.2215 29.6164 11.6302 29.6981 12.0878L31.6669 11.7362C31.5353 10.9991 31.2564 10.3199 30.8314 9.70893L29.1896 10.8511ZM29.6981 12.0878C29.7945 12.628 29.8425 13.1665 29.8425 13.704H31.8425C31.8425 13.0468 31.7838 12.3906 31.6669 11.7362L29.6981 12.0878ZM29.8425 13.704C29.8425 14.9674 29.8109 16.1868 29.7479 17.3625L31.7451 17.4695C31.8101 16.2558 31.8425 15.0006 31.8425 13.704H29.8425ZM29.7472 17.3797C29.7041 18.5642 29.6825 19.707 29.6825 20.808H31.6825C31.6825 19.733 31.7036 18.6145 31.7458 17.4523L29.7472 17.3797ZM24.5065 24.4C25.1754 24.4 25.8094 24.2654 26.3802 23.9649L25.4488 22.1951C25.209 22.3213 24.9043 22.4 24.5065 22.4V24.4ZM26.3802 23.9649C26.8732 23.7054 27.3082 23.3834 27.6713 22.9925L26.2057 21.6315C26.0141 21.8379 25.7664 22.0279 25.4488 22.1951L26.3802 23.9649ZM27.6713 22.9925C27.9914 22.6477 28.2639 22.2881 28.4787 21.9121L26.7423 20.9199C26.6158 21.1412 26.4403 21.379 26.2057 21.6315L27.6713 22.9925ZM28.4929 21.8866C28.6779 21.5397 28.8292 21.207 28.9203 20.9033L27.0047 20.3287C26.9678 20.4517 26.8845 20.6523 26.7281 20.9454L28.4929 21.8866ZM28.9625 20.616V17.256H26.9625V20.616H28.9625ZM27.9625 16.256C26.6972 16.256 25.6251 16.321 24.7624 16.4609L25.0826 18.4351C25.7986 18.319 26.7531 18.256 27.9625 18.256V16.256ZM24.7624 16.4609C23.9038 16.6001 23.1425 16.8328 22.5401 17.2057L23.5929 18.9063C23.8865 18.7245 24.3625 18.5519 25.0826 18.4351L24.7624 16.4609ZM22.5401 17.2057C21.9381 17.5784 21.4714 18.0871 21.21 18.7406L23.067 19.4834C23.1469 19.2835 23.2989 19.0882 23.5929 18.9063L22.5401 17.2057ZM21.2169 18.7239C20.9847 19.2753 20.8825 19.8811 20.8825 20.52H22.8825C22.8825 20.0923 22.9509 19.7594 23.0601 19.5001L21.2169 18.7239ZM20.8825 20.52C20.8825 21.6054 21.1626 22.5906 21.8493 23.3397L23.3237 21.9883C23.0717 21.7134 22.8825 21.2692 22.8825 20.52H20.8825ZM21.8639 23.3552C22.558 24.0809 23.4801 24.4 24.5065 24.4V22.4C23.9116 22.4 23.5537 22.2284 23.3091 21.9728L21.8639 23.3552ZM45.6548 21.832V20.832H44.8565L44.6796 21.6104L45.6548 21.832ZM45.1107 23.176L44.2533 22.6615V22.6615L45.1107 23.176ZM44.1507 24.328L44.8124 25.0778L44.8151 25.0754L44.1507 24.328ZM42.8708 25.096L42.5064 24.1648L42.4992 24.1676L42.4921 24.1705L42.8708 25.096ZM36.5988 23.368L35.8094 23.9819L36.5988 23.368ZM37.0148 10.856L36.2862 10.171L36.2808 10.1768L37.0148 10.856ZM44.2788 8.84L44.0916 9.82234L44.1144 9.82667L44.1373 9.82995L44.2788 8.84ZM45.7508 9.224L45.412 10.1649L46.7508 10.6468V9.224H45.7508ZM45.7508 3.176H46.7508V2.27574L45.8554 2.18149L45.7508 3.176ZM43.3187 2.92H42.3187V3.82026L43.2141 3.9145L43.3187 2.92ZM43.3187 2.088L42.9364 1.16398L42.3187 1.41956V2.088H43.3187ZM45.4627 1.416L45.2379 0.441591L45.2323 0.442918L45.4627 1.416ZM47.8307 0.935999V-0.0640011H47.7457L47.6618 -0.0496235L47.8307 0.935999ZM48.6308 0.935999H49.6308V-0.0640011H48.6308V0.935999ZM48.6308 23.176H47.6308V24.0621L48.5104 24.1687L48.6308 23.176ZM50.7428 23.432H51.7428V22.5459L50.8631 22.4393L50.7428 23.432ZM50.7428 24.104L51.1775 25.0046L51.7428 24.7317V24.104H50.7428ZM48.8228 24.872L49.1298 25.8237L48.8228 24.872ZM46.8708 25.32V26.32H46.9371L47.0029 26.3112L46.8708 25.32ZM46.0708 25.32L45.0741 25.4023L45.1499 26.32H46.0708V25.32ZM45.7827 21.832L46.7794 21.7497L46.7036 20.832H45.7827V21.832ZM44.4707 22.408L45.201 23.0912V23.0912L44.4707 22.408ZM45.7508 19.72L46.7299 19.9232L46.7508 19.8227V19.72H45.7508ZM45.7508 10.696H46.7508V10.1241L46.2578 9.83406L45.7508 10.696ZM39.2547 12.04L40.1084 12.5609L40.1122 12.5545L39.2547 12.04ZM38.3268 19.56L37.3451 19.7509L37.3462 19.7561L38.3268 19.56ZM40.2148 22.92L39.6266 23.7287L39.6472 23.7437L39.6685 23.7576L40.2148 22.92ZM44.6796 21.6104C44.5972 21.973 44.4566 22.3225 44.2533 22.6615L45.9682 23.6905C46.2769 23.1761 46.499 22.6297 46.6299 22.0536L44.6796 21.6104ZM44.2533 22.6615C44.0511 22.9984 43.7971 23.3044 43.4864 23.5806L44.8151 25.0754C45.2724 24.6689 45.6584 24.207 45.9682 23.6905L44.2533 22.6615ZM43.4891 23.5782C43.2217 23.8141 42.8978 24.0116 42.5064 24.1648L43.2351 26.0272C43.825 25.7964 44.3545 25.4819 44.8124 25.0778L43.4891 23.5782ZM42.4921 24.1705C42.1538 24.3089 41.7718 24.384 41.3348 24.384V26.384C42.007 26.384 42.649 26.2671 43.2494 26.0215L42.4921 24.1705ZM41.3348 24.384C39.4494 24.384 38.1988 23.7964 37.3881 22.7541L35.8094 23.9819C37.0894 25.6276 38.9961 26.384 41.3348 26.384V24.384ZM37.3881 22.7541C36.544 21.6688 36.0308 19.8464 36.0308 17.096H34.0308C34.0308 20.0202 34.5628 22.3792 35.8094 23.9819L37.3881 22.7541ZM36.0308 17.096C36.0308 14.5156 36.6554 12.7167 37.7487 11.5352L36.2808 10.1768C34.7288 11.854 34.0308 14.2151 34.0308 17.096H36.0308ZM37.7433 11.541C38.8689 10.344 40.3912 9.712 42.4228 9.712V7.712C39.9316 7.712 37.8486 8.50938 36.2862 10.171L37.7433 11.541ZM42.4228 9.712C43.1876 9.712 43.7341 9.75423 44.0916 9.82234L44.4659 7.85766C43.9274 7.7551 43.2365 7.712 42.4228 7.712V9.712ZM44.1373 9.82995C44.5037 9.88229 44.9274 9.99041 45.412 10.1649L46.0895 8.28311C45.5075 8.07359 44.9498 7.92571 44.4202 7.85005L44.1373 9.82995ZM46.7508 9.224V3.176H44.7508V9.224H46.7508ZM45.8554 2.18149L43.4234 1.92549L43.2141 3.9145L45.6461 4.1705L45.8554 2.18149ZM44.3187 2.92V2.088H42.3187V2.92H44.3187ZM43.7011 3.01202C44.2603 2.78061 44.9224 2.57163 45.6932 2.38908L45.2323 0.442918C44.3817 0.644367 43.6145 0.883393 42.9364 1.16398L43.7011 3.01202ZM45.6876 2.39039C46.5034 2.20214 47.274 2.04604 47.9997 1.92162L47.6618 -0.0496235C46.8942 0.0819607 46.0861 0.24586 45.2379 0.441607L45.6876 2.39039ZM47.8307 1.936H48.6308V-0.0640011H47.8307V1.936ZM47.6308 0.935999V23.176H49.6308V0.935999H47.6308ZM48.5104 24.1687L50.6224 24.4247L50.8631 22.4393L48.7511 22.1833L48.5104 24.1687ZM49.7428 23.432V24.104H51.7428V23.432H49.7428ZM50.308 23.2034C49.7312 23.4819 49.1339 23.7209 48.5157 23.9203L49.1298 25.8237C49.8343 25.5964 50.517 25.3234 51.1775 25.0046L50.308 23.2034ZM48.5157 23.9203C47.9071 24.1166 47.3149 24.2519 46.7386 24.3288L47.0029 26.3112C47.7066 26.2174 48.4157 26.054 49.1298 25.8237L48.5157 23.9203ZM46.8708 24.32H46.0708V26.32H46.8708V24.32ZM47.0674 25.2377L46.7794 21.7497L44.7861 21.9143L45.0741 25.4023L47.0674 25.2377ZM45.7827 20.832H45.6548V22.832H45.7827V20.832ZM41.9748 24.4C43.2501 24.4 44.3635 23.9864 45.201 23.0912L43.7405 21.7248C43.3406 22.1523 42.7901 22.4 41.9748 22.4V24.4ZM45.201 23.0912C45.9753 22.2635 46.468 21.1849 46.7299 19.9232L44.7716 19.5168C44.5641 20.5165 44.2035 21.2299 43.7405 21.7248L45.201 23.0912ZM46.7508 19.72V10.696H44.7508V19.72H46.7508ZM46.2578 9.83406C45.7744 9.54975 45.2299 9.36501 44.6421 9.26279L44.2994 11.2332C44.6929 11.3017 45.0017 11.4156 45.2437 11.5579L46.2578 9.83406ZM44.6421 9.26279C44.0732 9.16384 43.3809 9.12 42.5827 9.12V11.12C43.3206 11.12 43.887 11.1615 44.2994 11.2332L44.6421 9.26279ZM42.5827 9.12C40.7685 9.12 39.3396 9.955 38.3973 11.5255L40.1122 12.5545C40.7059 11.565 41.4957 11.12 42.5827 11.12V9.12ZM38.4011 11.5191C37.5046 12.9884 37.1027 14.8755 37.1027 17.096H39.1027C39.1027 15.0925 39.4689 13.6089 40.1084 12.5609L38.4011 11.5191ZM37.1027 17.096C37.1027 18.0273 37.1822 18.9131 37.3451 19.7509L39.3084 19.3691C39.1726 18.6709 39.1027 17.914 39.1027 17.096H37.1027ZM37.3462 19.7561C37.5127 20.5888 37.7792 21.3504 38.1566 22.0296L39.9049 21.0584C39.6423 20.5856 39.4395 20.0246 39.3073 19.3639L37.3462 19.7561ZM38.1566 22.0296C38.5377 22.7156 39.0246 23.2909 39.6266 23.7287L40.8029 22.1113C40.4663 21.8664 40.1638 21.5244 39.9049 21.0584L38.1566 22.0296ZM39.6685 23.7576C40.3471 24.2002 41.1309 24.4 41.9748 24.4V22.4C41.4533 22.4 41.0638 22.2798 40.761 22.0824L39.6685 23.7576ZM63.4048 21.832V20.832H62.6065L62.4296 21.6104L63.4048 21.832ZM62.8607 23.176L62.0033 22.6615V22.6615L62.8607 23.176ZM61.9007 24.328L62.5624 25.0778L62.5651 25.0754L61.9007 24.328ZM60.6208 25.096L60.2564 24.1648L60.2492 24.1676L60.2421 24.1705L60.6208 25.096ZM54.3488 23.368L53.5594 23.9819L54.3488 23.368ZM54.7648 10.856L54.0362 10.171L54.0308 10.1768L54.7648 10.856ZM62.0288 8.84L61.8416 9.82234L61.8644 9.82667L61.8873 9.82995L62.0288 8.84ZM63.5008 9.224L63.162 10.1649L64.5007 10.6468V9.224H63.5008ZM63.5008 3.176H64.5007V2.27574L63.6054 2.18149L63.5008 3.176ZM61.0687 2.92H60.0687V3.82026L60.9641 3.9145L61.0687 2.92ZM61.0687 2.088L60.6864 1.16398L60.0687 1.41956V2.088H61.0687ZM63.2127 1.416L62.9879 0.441591L62.9823 0.442918L63.2127 1.416ZM65.5807 0.935999V-0.0640011H65.4957L65.4118 -0.0496235L65.5807 0.935999ZM66.3808 0.935999H67.3808V-0.0640011H66.3808V0.935999ZM66.3808 23.176H65.3808V24.0621L66.2604 24.1687L66.3808 23.176ZM68.4928 23.432H69.4928V22.5459L68.6131 22.4393L68.4928 23.432ZM68.4928 24.104L68.9275 25.0046L69.4928 24.7317V24.104H68.4928ZM66.5728 24.872L66.8798 25.8237L66.5728 24.872ZM64.6208 25.32V26.32H64.6871L64.7529 26.3112L64.6208 25.32ZM63.8208 25.32L62.8241 25.4023L62.8999 26.32H63.8208V25.32ZM63.5327 21.832L64.5294 21.7497L64.4536 20.832H63.5327V21.832ZM62.2207 22.408L62.951 23.0912V23.0912L62.2207 22.408ZM63.5008 19.72L64.4799 19.9232L64.5007 19.8227V19.72H63.5008ZM63.5008 10.696H64.5007V10.1241L64.0078 9.83406L63.5008 10.696ZM57.0047 12.04L57.8584 12.5609L57.8622 12.5545L57.0047 12.04ZM56.0768 19.56L55.0951 19.7509L55.0962 19.7561L56.0768 19.56ZM57.9648 22.92L57.3766 23.7287L57.3972 23.7437L57.4185 23.7576L57.9648 22.92ZM62.4296 21.6104C62.3472 21.973 62.2066 22.3225 62.0033 22.6615L63.7182 23.6905C64.0269 23.1761 64.249 22.6297 64.3799 22.0536L62.4296 21.6104ZM62.0033 22.6615C61.8011 22.9984 61.5471 23.3044 61.2364 23.5806L62.5651 25.0754C63.0224 24.6689 63.4084 24.207 63.7182 23.6905L62.0033 22.6615ZM61.2391 23.5782C60.9717 23.8141 60.6478 24.0116 60.2564 24.1648L60.9851 26.0272C61.575 25.7964 62.1045 25.4819 62.5624 25.0778L61.2391 23.5782ZM60.2421 24.1705C59.9038 24.3089 59.5218 24.384 59.0848 24.384V26.384C59.757 26.384 60.399 26.2671 60.9994 26.0215L60.2421 24.1705ZM59.0848 24.384C57.1994 24.384 55.9488 23.7964 55.1381 22.7541L53.5594 23.9819C54.8394 25.6276 56.7461 26.384 59.0848 26.384V24.384ZM55.1381 22.7541C54.294 21.6688 53.7808 19.8464 53.7808 17.096H51.7808C51.7808 20.0202 52.3128 22.3792 53.5594 23.9819L55.1381 22.7541ZM53.7808 17.096C53.7808 14.5156 54.4054 12.7167 55.4987 11.5352L54.0308 10.1768C52.4788 11.854 51.7808 14.2151 51.7808 17.096H53.7808ZM55.4933 11.541C56.6189 10.344 58.1412 9.712 60.1728 9.712V7.712C57.6816 7.712 55.5986 8.50938 54.0362 10.171L55.4933 11.541ZM60.1728 9.712C60.9376 9.712 61.4841 9.75423 61.8416 9.82234L62.2159 7.85766C61.6774 7.7551 60.9865 7.712 60.1728 7.712V9.712ZM61.8873 9.82995C62.2537 9.88229 62.6774 9.99041 63.162 10.1649L63.8395 8.28311C63.2575 8.07359 62.6998 7.92571 62.1702 7.85005L61.8873 9.82995ZM64.5007 9.224V3.176H62.5008V9.224H64.5007ZM63.6054 2.18149L61.1734 1.92549L60.9641 3.9145L63.3961 4.1705L63.6054 2.18149ZM62.0687 2.92V2.088H60.0687V2.92H62.0687ZM61.4511 3.01202C62.0103 2.78061 62.6724 2.57163 63.4432 2.38908L62.9823 0.442918C62.1317 0.644367 61.3645 0.883393 60.6864 1.16398L61.4511 3.01202ZM63.4376 2.39039C64.2534 2.20214 65.024 2.04604 65.7497 1.92162L65.4118 -0.0496235C64.6442 0.0819607 63.8361 0.24586 62.9879 0.441607L63.4376 2.39039ZM65.5807 1.936H66.3808V-0.0640011H65.5807V1.936ZM65.3808 0.935999V23.176H67.3808V0.935999H65.3808ZM66.2604 24.1687L68.3724 24.4247L68.6131 22.4393L66.5011 22.1833L66.2604 24.1687ZM67.4928 23.432V24.104H69.4928V23.432H67.4928ZM68.058 23.2034C67.4812 23.4819 66.8839 23.7209 66.2657 23.9203L66.8798 25.8237C67.5843 25.5964 68.267 25.3234 68.9275 25.0046L68.058 23.2034ZM66.2657 23.9203C65.6571 24.1166 65.0649 24.2519 64.4886 24.3288L64.7529 26.3112C65.4566 26.2174 66.1657 26.054 66.8798 25.8237L66.2657 23.9203ZM64.6208 24.32H63.8208V26.32H64.6208V24.32ZM64.8174 25.2377L64.5294 21.7497L62.5361 21.9143L62.8241 25.4023L64.8174 25.2377ZM63.5327 20.832H63.4048V22.832H63.5327V20.832ZM59.7248 24.4C61.0001 24.4 62.1135 23.9864 62.951 23.0912L61.4905 21.7248C61.0906 22.1523 60.5401 22.4 59.7248 22.4V24.4ZM62.951 23.0912C63.7253 22.2635 64.218 21.1849 64.4799 19.9232L62.5216 19.5168C62.3141 20.5165 61.9535 21.2299 61.4905 21.7248L62.951 23.0912ZM64.5007 19.72V10.696H62.5008V19.72H64.5007ZM64.0078 9.83406C63.5244 9.54975 62.9799 9.36501 62.3921 9.26279L62.0494 11.2332C62.4429 11.3017 62.7517 11.4156 62.9937 11.5579L64.0078 9.83406ZM62.3921 9.26279C61.8232 9.16384 61.1309 9.12 60.3327 9.12V11.12C61.0706 11.12 61.637 11.1615 62.0494 11.2332L62.3921 9.26279ZM60.3327 9.12C58.5185 9.12 57.0896 9.955 56.1473 11.5255L57.8622 12.5545C58.4559 11.565 59.2457 11.12 60.3327 11.12V9.12ZM56.1511 11.5191C55.2546 12.9884 54.8527 14.8755 54.8527 17.096H56.8527C56.8527 15.0925 57.2189 13.6089 57.8584 12.5609L56.1511 11.5191ZM54.8527 17.096C54.8527 18.0273 54.9322 18.9131 55.0951 19.7509L57.0584 19.3691C56.9226 18.6709 56.8527 17.914 56.8527 17.096H54.8527ZM55.0962 19.7561C55.2627 20.5888 55.5292 21.3504 55.9066 22.0296L57.6549 21.0584C57.3923 20.5856 57.1895 20.0246 57.0573 19.3639L55.0962 19.7561ZM55.9066 22.0296C56.2877 22.7156 56.7746 23.2909 57.3766 23.7287L58.5529 22.1113C58.2163 21.8664 57.9138 21.5244 57.6549 21.0584L55.9066 22.0296ZM57.4185 23.7576C58.0971 24.2002 58.8809 24.4 59.7248 24.4V22.4C59.2033 22.4 58.8138 22.2798 58.511 22.0824L57.4185 23.7576ZM83.4908 22.76L84.3956 23.1858L84.6741 22.5938L84.2433 22.1015L83.4908 22.76ZM82.6908 23.784L83.3524 24.5338L82.6908 23.784ZM81.4427 24.616L81.89 25.5104L81.4427 24.616ZM79.9068 25.16L79.6819 24.1856L79.6643 24.1897L79.6468 24.1944L79.9068 25.16ZM74.8828 24.808L74.4938 25.7292L74.5025 25.7329L74.5114 25.7365L74.8828 24.808ZM72.4827 23.112L71.7235 23.7628L71.7282 23.7682L71.7329 23.7736L72.4827 23.112ZM71.0107 20.456L70.0563 20.7543L70.0591 20.7633L70.0621 20.7722L71.0107 20.456ZM72.4187 10.76L71.6683 10.0991L72.4187 10.76ZM79.9707 8.936L79.6886 9.89536L79.7017 9.89921L79.7149 9.9027L79.9707 8.936ZM81.8907 9.928L81.2448 10.6914L81.2519 10.6974L81.2591 10.7032L81.8907 9.928ZM83.2668 11.816L82.3489 12.2129L82.3554 12.2281L82.3625 12.243L83.2668 11.816ZM83.7467 15.816L82.7529 15.7056L82.75 15.7314L82.7485 15.7573L83.7467 15.816ZM83.5868 17V18H84.4066L84.5673 17.1961L83.5868 17ZM73.6028 17V16H72.6028V17H73.6028ZM73.9228 19.528L72.9574 19.7889L72.9616 19.8046L72.9664 19.8202L73.9228 19.528ZM76.6428 22.92L76.1955 23.8144L76.2069 23.8201L76.2183 23.8255L76.6428 22.92ZM81.3148 23.08L81.0471 22.1165L81.3148 23.08ZM83.0427 22.248L83.7953 21.5895L83.1317 20.831L82.3784 21.5006L83.0427 22.248ZM74.8508 11.272L75.6357 11.8917L75.6434 11.8817L74.8508 11.272ZM73.6988 15.592L72.7007 15.5303L72.635 16.592H73.6988V15.592ZM80.7388 15.592V16.592H81.6338L81.7326 15.7024L80.7388 15.592ZM80.7708 15.048L79.7769 14.9376L79.7708 14.9926V15.048H80.7708ZM80.0348 11.24L80.8802 10.706L80.0348 11.24ZM82.5859 22.3342C82.4841 22.5506 82.3102 22.7862 82.0291 23.0342L83.3524 24.5338C83.7967 24.1418 84.1561 23.6947 84.3956 23.1858L82.5859 22.3342ZM82.0291 23.0342C81.7366 23.2923 81.394 23.5224 80.9955 23.7216L81.89 25.5104C82.4302 25.2403 82.9195 24.9157 83.3524 24.5338L82.0291 23.0342ZM80.9955 23.7216C80.6026 23.918 80.166 24.0739 79.6819 24.1856L80.1316 26.1344C80.7568 25.9901 81.3442 25.7833 81.89 25.5104L80.9955 23.7216ZM79.6468 24.1944C79.1771 24.3208 78.6992 24.384 78.2108 24.384V26.384C78.8743 26.384 79.527 26.2978 80.1667 26.1256L79.6468 24.1944ZM78.2108 24.384C77.0524 24.384 76.0734 24.2072 75.2541 23.8795L74.5114 25.7365C75.6121 26.1768 76.8517 26.384 78.2108 26.384V24.384ZM75.2717 23.8868C74.4391 23.5352 73.7658 23.0547 73.2326 22.4504L71.7329 23.7736C72.4797 24.62 73.4064 25.2701 74.4938 25.7292L75.2717 23.8868ZM73.242 22.4612C72.6941 21.8219 72.2639 21.0531 71.9594 20.1398L70.0621 20.7722C70.4403 21.9069 70.9914 22.9087 71.7235 23.7628L73.242 22.4612ZM71.9652 20.1577C71.6806 19.2468 71.5307 18.1978 71.5307 17H69.5307C69.5307 18.3622 69.7009 19.6172 70.0563 20.7543L71.9652 20.1577ZM71.5307 17C71.5307 14.4084 72.129 12.6022 73.1692 11.4209L71.6683 10.0991C70.1912 11.7765 69.5307 14.1302 69.5307 17H71.5307ZM73.1692 11.4209C74.1986 10.252 75.6803 9.616 77.7627 9.616V7.616C75.2372 7.616 73.1562 8.40938 71.6683 10.0991L73.1692 11.4209ZM77.7627 9.616C78.4127 9.616 79.0537 9.70864 79.6886 9.89536L80.2529 7.97663C79.4371 7.73669 78.6061 7.616 77.7627 7.616V9.616ZM79.7149 9.9027C80.3015 10.058 80.8072 10.3211 81.2448 10.6914L82.5367 9.16461C81.865 8.59623 81.0906 8.198 80.2266 7.96929L79.7149 9.9027ZM81.2591 10.7032C81.6925 11.0564 82.0612 11.5476 82.3489 12.2129L84.1846 11.4191C83.7897 10.5058 83.241 9.73831 82.5224 9.15276L81.2591 10.7032ZM82.3625 12.243C82.6438 12.8388 82.8108 13.6418 82.8108 14.696H84.8108C84.8108 13.4462 84.615 12.3292 84.171 11.389L82.3625 12.243ZM82.8108 14.696C82.8108 15.0195 82.7917 15.3559 82.7529 15.7056L84.7406 15.9264C84.7871 15.5081 84.8108 15.0979 84.8108 14.696H82.8108ZM82.7485 15.7573C82.7303 16.0658 82.6842 16.414 82.6062 16.8039L84.5673 17.1961C84.66 16.7327 84.7205 16.2915 84.745 15.8747L82.7485 15.7573ZM83.5868 16H73.6028V18H83.5868V16ZM72.6028 17C72.6028 17.9758 72.719 18.9068 72.9574 19.7889L74.8881 19.2671C74.6999 18.5705 74.6028 17.8162 74.6028 17H72.6028ZM72.9664 19.8202C73.2331 20.693 73.6274 21.4766 74.1574 22.1579L75.7361 20.9301C75.3701 20.4594 75.0817 19.899 74.8791 19.2358L72.9664 19.8202ZM74.1574 22.1579C74.7013 22.8572 75.3856 23.4095 76.1955 23.8144L77.09 22.0256C76.5346 21.7479 76.0882 21.3828 75.7361 20.9301L74.1574 22.1579ZM76.2183 23.8255C77.0594 24.2197 78.0099 24.4 79.0427 24.4V22.4C78.2409 22.4 77.5914 22.2603 77.0672 22.0145L76.2183 23.8255ZM79.0427 24.4C79.8858 24.4 80.7331 24.2794 81.5824 24.0435L81.0471 22.1165C80.3604 22.3072 79.6931 22.4 79.0427 22.4V24.4ZM81.5824 24.0435C82.4243 23.8097 83.1634 23.4787 83.7071 22.9954L82.3784 21.5006C82.1541 21.7 81.7412 21.9237 81.0471 22.1165L81.5824 24.0435ZM82.2902 22.9065L82.7382 23.4185L84.2433 22.1015L83.7953 21.5895L82.2902 22.9065ZM77.6348 9.024C76.1639 9.024 74.919 9.54321 74.0581 10.6623L75.6434 11.8817C76.0625 11.3368 76.6736 11.024 77.6348 11.024V9.024ZM74.0659 10.6524C73.2245 11.7181 72.8307 13.4272 72.7007 15.5303L74.6968 15.6537C74.8228 13.6181 75.197 12.4472 75.6356 11.8916L74.0659 10.6524ZM73.6988 16.592H80.7388V14.592H73.6988V16.592ZM81.7326 15.7024C81.7575 15.4785 81.7708 15.26 81.7708 15.048H79.7708C79.7708 15.1773 79.7626 15.3215 79.7449 15.4816L81.7326 15.7024ZM81.7646 15.1584C81.7895 14.9345 81.8027 14.716 81.8027 14.504H79.8027C79.8027 14.6333 79.7946 14.7775 79.7769 14.9376L81.7646 15.1584ZM81.8027 14.504C81.8027 13.0259 81.5274 11.7306 80.8802 10.706L79.1893 11.774C79.5661 12.3707 79.8027 13.2514 79.8027 14.504H81.8027ZM80.8802 10.706C80.1576 9.5619 79.0113 9.024 77.6348 9.024V11.024C78.4342 11.024 78.8879 11.2968 79.1893 11.774L80.8802 10.706ZM93.1205 11.4V10.4H92.8655L92.6416 10.5221L93.1205 11.4ZM92.2245 12.2L91.4793 11.5332L91.4771 11.5356L92.2245 12.2ZM91.2965 13.928L90.3559 13.5884L90.2965 13.753V13.928H91.2965ZM91.2965 23.432H90.2965V24.337L91.197 24.427L91.2965 23.432ZM92.5765 23.688L92.2892 24.6458L92.3114 24.6525L92.334 24.6581L92.5765 23.688ZM93.8565 24.2H94.8565V23.6087L94.3384 23.3238L93.8565 24.2ZM93.8565 25V26H94.8565V25H93.8565ZM86.3045 25H85.3045V26H86.3045V25ZM86.3045 24.2L85.8189 23.3258L85.3045 23.6116V24.2H86.3045ZM87.3925 23.72L87.0942 22.7655L87.3925 23.72ZM88.4165 23.432L88.659 24.4021L89.4165 24.2128V23.432H88.4165ZM88.4165 10.856H89.4165V9.96989L88.5368 9.86327L88.4165 10.856ZM86.3045 10.6H85.3045V11.4861L86.1842 11.5927L86.3045 10.6ZM86.3045 9.768L85.9037 8.85184L85.3045 9.11398V9.768H86.3045ZM88.4165 9.064L88.6455 10.0374L88.659 10.0342L88.6724 10.0307L88.4165 9.064ZM90.4965 8.616V7.616H90.4164L90.3373 7.62876L90.4965 8.616ZM91.2965 8.616H92.2965V7.616H91.2965V8.616ZM91.2965 12.008H90.2965V13.008H91.2965V12.008ZM91.4245 12.008V13.008H92.0711L92.3364 12.4184L91.4245 12.008ZM92.2245 10.728L91.4626 10.0804L91.4529 10.0917L91.4436 10.1033L92.2245 10.728ZM93.4405 9.576L92.8523 8.76726L92.8433 8.77382L92.8345 8.78057L93.4405 9.576ZM94.9445 8.808L95.2493 9.76042L95.2605 9.75683L95.2716 9.75299L94.9445 8.808ZM96.6405 8.616L97.521 8.1419L97.2723 7.68004L96.7509 7.62212L96.6405 8.616ZM97.0245 9.544L96.07 9.84227L96.0816 9.87934L96.096 9.91539L97.0245 9.544ZM97.3765 10.568H98.3765V10.424L98.3359 10.2858L97.3765 10.568ZM97.3765 11.4V12.4H98.3765V11.4H97.3765ZM92.6416 10.5221C92.2489 10.7363 91.856 11.1121 91.4793 11.5332L92.9697 12.8668C93.3183 12.4772 93.5227 12.3197 93.5993 12.2779L92.6416 10.5221ZM91.4771 11.5356C91.0164 12.054 90.654 12.763 90.3559 13.5884L92.2371 14.2676C92.4937 13.557 92.75 13.114 92.9719 12.8644L91.4771 11.5356ZM90.2965 13.928V23.432H92.2965V13.928H90.2965ZM91.197 24.427C91.5576 24.4631 91.9214 24.5355 92.2892 24.6458L92.8638 22.7302C92.3783 22.5845 91.8887 22.4862 91.396 22.437L91.197 24.427ZM92.334 24.6581C92.6687 24.7418 93.0154 24.8786 93.3746 25.0762L94.3384 23.3238C93.8443 23.052 93.3376 22.8475 92.819 22.7179L92.334 24.6581ZM92.8565 24.2V25H94.8565V24.2H92.8565ZM93.8565 24H86.3045V26H93.8565V24ZM87.3045 25V24.2H85.3045V25H87.3045ZM86.7901 25.0742C87.1275 24.8867 87.4272 24.7568 87.6908 24.6745L87.0942 22.7655C86.6751 22.8965 86.2495 23.0866 85.8189 23.3258L86.7901 25.0742ZM87.6908 24.6745C88.014 24.5735 88.3367 24.4827 88.659 24.4021L88.174 22.4619C87.8136 22.5519 87.4537 22.6532 87.0942 22.7655L87.6908 24.6745ZM89.4165 23.432V10.856H87.4165V23.432H89.4165ZM88.5368 9.86327L86.4248 9.60727L86.1842 11.5927L88.2962 11.8487L88.5368 9.86327ZM87.3045 10.6V9.768H85.3045V10.6H87.3045ZM86.7053 10.6842C87.3326 10.4097 87.9791 10.1942 88.6455 10.0374L88.1875 8.09058C87.4033 8.2751 86.6418 8.52893 85.9037 8.85184L86.7053 10.6842ZM88.6724 10.0307C89.3696 9.84615 90.0305 9.70408 90.6557 9.60324L90.3373 7.62876C89.6398 7.74125 88.9141 7.89784 88.1606 8.09729L88.6724 10.0307ZM90.4965 9.616H91.2965V7.616H90.4965V9.616ZM90.2965 8.616V12.008H92.2965V8.616H90.2965ZM91.2965 13.008H91.4245V11.008H91.2965V13.008ZM92.3364 12.4184C92.4887 12.0799 92.708 11.7244 93.0054 11.3527L91.4436 10.1033C91.0583 10.5849 90.7443 11.0828 90.5126 11.5976L92.3364 12.4184ZM92.9864 11.3756C93.3023 11.004 93.6553 10.6695 94.0465 10.3714L92.8345 8.78057C92.3297 9.16517 91.872 9.59865 91.4626 10.0804L92.9864 11.3756ZM94.0287 10.3847C94.415 10.1038 94.8211 9.89743 95.2493 9.76042L94.6397 7.85557C94.0012 8.0599 93.4047 8.36554 92.8523 8.76726L94.0287 10.3847ZM95.2716 9.75299C95.6877 9.60894 96.1037 9.56251 96.5301 9.60988L96.7509 7.62212C96.0253 7.54149 95.3106 7.62305 94.6174 7.86301L95.2716 9.75299ZM95.76 9.0901C95.8754 9.30438 95.9799 9.55376 96.07 9.84227L97.979 9.24572C97.8558 8.85157 97.7043 8.48228 97.521 8.1419L95.76 9.0901ZM96.096 9.91539C96.2113 10.2035 96.3185 10.5149 96.4171 10.8502L98.3359 10.2858C98.2212 9.89581 98.0937 9.52449 97.953 9.17261L96.096 9.91539ZM96.3765 10.568V11.4H98.3765V10.568H96.3765ZM97.3765 10.4H93.1205V12.4H97.3765V10.4ZM106.303 2.6V1.6H105.303V2.6H106.303ZM115.071 2.6H116.071V1.6H115.071V2.6ZM115.071 3.528L115.422 4.46433L116.071 4.221V3.528H115.071ZM113.535 4.04L113.778 5.01014L113.796 5.00543L113.815 5L113.535 4.04ZM111.999 4.328L111.875 3.33572L110.999 3.44522V4.328H111.999ZM111.999 23.336H110.999V24.336H111.999V23.336ZM119.359 23.336V24.336H120.058L120.298 23.6801L119.359 23.336ZM121.247 18.184V17.184H120.548L120.308 17.8399L121.247 18.184ZM122.079 18.184L123.069 18.0426L122.946 17.184H122.079V18.184ZM122.239 19.752L121.242 19.8232L121.243 19.8429L121.245 19.8624L122.239 19.752ZM122.367 21.576L121.368 21.6093L121.368 21.6271L121.369 21.6448L122.367 21.576ZM122.399 25V26H123.355L123.398 25.0454L122.399 25ZM106.303 25H105.303V26H106.303V25ZM106.303 24.072L105.886 23.1629L105.303 23.4303V24.072H106.303ZM107.711 23.56L107.954 24.5301L107.711 23.56ZM108.927 23.304L109.091 24.2904L109.927 24.1511V23.304H108.927ZM108.927 4.328H109.927V3.4869L109.098 3.34279L108.927 4.328ZM107.519 4.008L107.203 4.95668L107.223 4.96355L107.244 4.96952L107.519 4.008ZM106.303 3.528H105.303V4.16261L105.877 4.43282L106.303 3.528ZM106.303 3.6H115.071V1.6H106.303V3.6ZM114.071 2.6V3.528H116.071V2.6H114.071ZM114.72 2.59167C114.231 2.77511 113.742 2.93784 113.255 3.08L113.815 5C114.352 4.84349 114.887 4.66488 115.422 4.46433L114.72 2.59167ZM113.292 3.06986C112.819 3.18832 112.346 3.27682 111.875 3.33572L112.123 5.32028C112.676 5.25118 113.227 5.14767 113.778 5.01014L113.292 3.06986ZM110.999 4.328V23.336H112.999V4.328H110.999ZM111.999 24.336H119.359V22.336H111.999V24.336ZM120.298 23.6801L122.186 18.5281L120.308 17.8399L118.42 22.9919L120.298 23.6801ZM121.247 19.184H122.079V17.184H121.247V19.184ZM121.089 18.3254C121.149 18.7441 121.2 19.2424 121.242 19.8232L123.236 19.6808C123.193 19.0669 123.137 18.5199 123.069 18.0426L121.089 18.3254ZM121.245 19.8624C121.306 20.4103 121.347 20.9924 121.368 21.6093L123.366 21.5427C123.344 20.8796 123.3 20.2457 123.233 19.6416L121.245 19.8624ZM121.369 21.6448C121.411 22.2414 121.431 22.8265 121.431 23.4H123.431C123.431 22.7789 123.409 22.1479 123.365 21.5072L121.369 21.6448ZM121.431 23.4C121.431 23.986 121.421 24.5038 121.4 24.9546L123.398 25.0454C123.42 24.5575 123.431 24.0086 123.431 23.4H121.431ZM122.399 24H106.303V26H122.399V24ZM107.303 25V24.072H105.303V25H107.303ZM106.72 24.9811C107.19 24.7653 107.601 24.6184 107.954 24.5301L107.468 22.5899C106.968 22.7149 106.44 22.9093 105.886 23.1629L106.72 24.9811ZM107.954 24.5301C108.358 24.4291 108.737 24.3495 109.091 24.2904L108.763 22.3176C108.349 22.3865 107.918 22.4775 107.468 22.5899L107.954 24.5301ZM109.927 23.304V4.328H107.927V23.304H109.927ZM109.098 3.34279C108.64 3.2631 108.205 3.16412 107.794 3.04648L107.244 4.96952C107.729 5.10788 108.233 5.22223 108.756 5.31321L109.098 3.34279ZM107.835 3.05932C107.418 2.92031 107.05 2.77444 106.729 2.62318L105.877 4.43282C106.281 4.62289 106.724 4.79702 107.203 4.95668L107.835 3.05932ZM107.303 3.528V2.6H105.303V3.528H107.303ZM131.354 25V26H132.354V25H131.354ZM124.249 25H123.249V26H124.249V25ZM124.249 24.2L123.779 23.3176L123.249 23.6V24.2H124.249ZM125.242 23.784L125.54 24.7385L125.566 24.7301L125.593 24.7203L125.242 23.784ZM126.362 23.432L126.616 24.3991L127.362 24.2029V23.432H126.362ZM126.362 10.856H127.362V9.96989L126.482 9.86327L126.362 10.856ZM124.249 10.6H123.249V11.4861L124.129 11.5927L124.249 10.6ZM124.249 9.768L123.867 8.84398L123.249 9.09956V9.768H124.249ZM126.266 9.096L126.521 10.0627V10.0627L126.266 9.096ZM128.441 8.616V7.616H128.354L128.268 7.63122L128.441 8.616ZM129.242 8.616H130.242V7.616H129.242V8.616ZM129.242 23.432H128.242V24.2128L128.999 24.4021L129.242 23.432ZM130.393 23.784L130.042 24.7203L130.069 24.7301L130.095 24.7385L130.393 23.784ZM131.354 24.2H132.354V23.6197L131.85 23.3318L131.354 24.2ZM126.298 2.184L125.633 1.43659L125.622 1.44604L125.612 1.4558L126.298 2.184ZM129.273 2.184L129.959 1.4558V1.4558L129.273 2.184ZM129.273 4.936L129.935 5.68584L129.947 5.67521L129.959 5.6642L129.273 4.936ZM126.298 4.936L125.612 5.6642L125.634 5.68489L125.657 5.70422L126.298 4.936ZM131.354 24H124.249V26H131.354V24ZM125.249 25V24.2H123.249V25H125.249ZM124.72 25.0824C124.986 24.9406 125.259 24.8263 125.54 24.7385L124.943 22.8295C124.541 22.9551 124.153 23.118 123.779 23.3176L124.72 25.0824ZM125.593 24.7203C125.898 24.6058 126.239 24.4984 126.616 24.3991L126.107 22.4649C125.674 22.579 125.268 22.7062 124.89 22.8477L125.593 24.7203ZM127.362 23.432V10.856H125.362V23.432H127.362ZM126.482 9.86327L124.37 9.60727L124.129 11.5927L126.241 11.8487L126.482 9.86327ZM125.249 10.6V9.768H123.249V10.6H125.249ZM124.632 10.692C125.205 10.4549 125.834 10.2446 126.521 10.0627L126.01 8.12929C125.246 8.33135 124.532 8.56906 123.867 8.84398L124.632 10.692ZM126.521 10.0627C127.22 9.87774 127.918 9.72382 128.615 9.60078L128.268 7.63122C127.514 7.76418 126.762 7.93025 126.01 8.12929L126.521 10.0627ZM128.441 9.616H129.242V7.616H128.441V9.616ZM128.242 8.616V23.432H130.242V8.616H128.242ZM128.999 24.4021C129.396 24.5014 129.743 24.608 130.042 24.7203L130.745 22.8477C130.361 22.704 129.94 22.5759 129.484 22.4619L128.999 24.4021ZM130.095 24.7385C130.37 24.8245 130.624 24.9348 130.857 25.0682L131.85 23.3318C131.486 23.1239 131.099 22.9569 130.692 22.8295L130.095 24.7385ZM130.354 24.2V25H132.354V24.2H130.354ZM126.754 3.56C126.754 3.21254 126.853 3.03448 126.983 2.9122L125.612 1.4558C125.017 2.01618 124.754 2.75546 124.754 3.56H126.754ZM126.962 2.93141C127.127 2.7846 127.375 2.672 127.801 2.672V0.671999C126.99 0.671999 126.236 0.900735 125.633 1.43659L126.962 2.93141ZM127.801 2.672C128.23 2.672 128.453 2.78526 128.588 2.9122L129.959 1.4558C129.368 0.900074 128.61 0.671999 127.801 0.671999V2.672ZM128.588 2.9122C128.718 3.03448 128.818 3.21254 128.818 3.56H130.818C130.818 2.75546 130.554 2.01618 129.959 1.4558L128.588 2.9122ZM128.818 3.56C128.818 3.90746 128.718 4.08552 128.588 4.2078L129.959 5.6642C130.554 5.10382 130.818 4.36454 130.818 3.56H128.818ZM128.612 4.18616C128.478 4.304 128.246 4.416 127.801 4.416V6.416C128.594 6.416 129.343 6.208 129.935 5.68584L128.612 4.18616ZM127.801 4.416C127.359 4.416 127.102 4.30498 126.938 4.16778L125.657 5.70422C126.261 6.20702 127.006 6.416 127.801 6.416V4.416ZM126.983 4.2078C126.853 4.08552 126.754 3.90746 126.754 3.56H124.754C124.754 4.36454 125.017 5.10382 125.612 5.6642L126.983 4.2078ZM135.027 3.176H136.027V2.27574L135.131 2.18149L135.027 3.176ZM132.594 2.92H131.594V3.82026L132.49 3.9145L132.594 2.92ZM132.594 2.088L132.208 1.1658L131.594 1.42298V2.088H132.594ZM134.803 1.416L134.602 0.436383L134.596 0.437449L134.803 1.416ZM137.107 0.935999V-0.0640011H137.002L136.899 -0.0422354L137.107 0.935999ZM137.906 0.935999H138.906V-0.0640011H137.906V0.935999ZM137.906 12.168H136.906V13.168H137.906V12.168ZM137.971 12.168V13.168H138.691L138.919 12.4842L137.971 12.168ZM139.794 9.576L139.204 8.76891L139.195 8.776L139.794 9.576ZM147.122 10.6L146.332 11.2122L146.338 11.2201L147.122 10.6ZM146.546 23.112L145.834 22.4101L145.829 22.4155L146.546 23.112ZM138.835 25.16L138.992 24.1726L138.973 24.1695L138.954 24.1671L138.835 25.16ZM137.298 24.904L137.086 25.8812L137.298 24.904ZM135.954 24.52L135.592 25.452L135.6 25.4552L135.609 25.4583L135.954 24.52ZM135.027 24.072H134.027V24.6209L134.49 24.9157L135.027 24.072ZM139.314 11.656L140.044 12.3399L140.049 12.3343L140.054 12.3287L139.314 11.656ZM137.906 14.28L136.944 14.0104L136.906 14.1426V14.28H137.906ZM137.906 23.208H136.906V23.7964L137.421 24.0822L137.906 23.208ZM139.314 23.72L139.09 24.6944L139.108 24.6985L139.126 24.702L139.314 23.72ZM144.402 22.056L145.235 22.6107L145.239 22.604L144.402 22.056ZM145.395 14.344L144.409 14.513L144.411 14.5266L144.414 14.5401L145.395 14.344ZM144.723 12.392L143.842 12.8661L143.849 12.879L143.856 12.8917L144.723 12.392ZM143.538 11.08L142.975 11.9062L142.984 11.912L142.992 11.9176L143.538 11.08ZM135.131 2.18149L132.699 1.92549L132.49 3.9145L134.922 4.1705L135.131 2.18149ZM133.594 2.92V2.088H131.594V2.92H133.594ZM132.981 3.01019C133.576 2.76074 134.25 2.55414 135.009 2.39455L134.596 0.437449C133.733 0.619187 132.936 0.860596 132.208 1.1658L132.981 3.01019ZM135.003 2.3956C135.837 2.22456 136.607 2.0641 137.314 1.91423L136.899 -0.0422354C136.198 0.10656 135.432 0.2661 134.602 0.436396L135.003 2.3956ZM137.107 1.936H137.906V-0.0640011H137.107V1.936ZM136.906 0.935999V12.168H138.906V0.935999H136.906ZM137.906 13.168H137.971V11.168H137.906V13.168ZM138.919 12.4842C139.223 11.5739 139.716 10.8846 140.395 10.376L139.195 8.776C138.166 9.54735 137.444 10.5861 137.022 11.8518L138.919 12.4842ZM140.385 10.383C141.095 9.86348 141.85 9.616 142.674 9.616V7.616C141.409 7.616 140.243 8.00852 139.204 8.76897L140.385 10.383ZM142.674 9.616C144.363 9.616 145.529 10.1753 146.332 11.2122L147.913 9.98783C146.668 8.37934 144.869 7.616 142.674 7.616V9.616ZM146.338 11.2201C147.18 12.2851 147.691 14.0535 147.691 16.712H149.691C149.691 13.8665 149.156 11.5602 147.907 9.97995L146.338 11.2201ZM147.691 16.712C147.691 19.3676 147.018 21.2086 145.834 22.4102L147.259 23.8139C148.934 22.1141 149.691 19.6884 149.691 16.712H147.691ZM145.829 22.4155C144.664 23.616 142.921 24.288 140.434 24.288V26.288C143.282 26.288 145.613 25.5094 147.264 23.8085L145.829 22.4155ZM140.434 24.288C139.955 24.288 139.474 24.2496 138.992 24.1726L138.677 26.1474C139.261 26.241 139.848 26.288 140.434 26.288V24.288ZM138.954 24.1671C138.449 24.1066 137.969 24.0263 137.511 23.9268L137.086 25.8812C137.61 25.995 138.153 26.0854 138.715 26.1529L138.954 24.1671ZM137.511 23.9268C137.058 23.8285 136.656 23.7127 136.3 23.5817L135.609 25.4583C136.064 25.626 136.557 25.7662 137.086 25.8812L137.511 23.9268ZM136.317 23.588C135.968 23.4522 135.723 23.3302 135.563 23.2283L134.49 24.9157C134.799 25.1124 135.173 25.2891 135.592 25.452L136.317 23.588ZM136.027 24.072V3.176H134.027V24.072H136.027ZM141.811 9.6C140.529 9.6 139.42 10.0536 138.575 10.9833L140.054 12.3287C140.489 11.8504 141.044 11.6 141.811 11.6V9.6ZM138.585 10.9721C137.816 11.7918 137.278 12.8172 136.944 14.0104L138.869 14.5496C139.133 13.6095 139.533 12.8855 140.044 12.3399L138.585 10.9721ZM136.906 14.28V23.208H138.906V14.28H136.906ZM137.421 24.0822C137.907 24.3521 138.469 24.5512 139.09 24.6944L139.539 22.7456C139.05 22.6328 138.674 22.4906 138.392 22.3338L137.421 24.0822ZM139.126 24.702C139.748 24.8217 140.398 24.88 141.074 24.88V22.88C140.513 22.88 139.99 22.8316 139.503 22.738L139.126 24.702ZM141.074 24.88C142.832 24.88 144.247 24.0922 145.235 22.6107L143.57 21.5013C142.937 22.4518 142.133 22.88 141.074 22.88V24.88ZM145.239 22.604C146.201 21.1353 146.618 19.1297 146.618 16.712H144.618C144.618 18.945 144.225 20.502 143.566 21.508L145.239 22.604ZM146.618 16.712C146.618 15.8202 146.538 14.9648 146.375 14.1479L144.414 14.5401C144.549 15.2166 144.618 15.9398 144.618 16.712H146.618ZM146.38 14.175C146.236 13.3328 145.977 12.5661 145.589 11.8923L143.856 12.8917C144.108 13.3272 144.297 13.8619 144.409 14.513L146.38 14.175ZM145.603 11.9179C145.231 11.2274 144.726 10.6605 144.085 10.2424L142.992 11.9176C143.332 12.1395 143.616 12.4472 143.842 12.8661L145.603 11.9179ZM144.102 10.2538C143.435 9.79936 142.653 9.6 141.811 9.6V11.6C142.333 11.6 142.703 11.7206 142.975 11.9062L144.102 10.2538ZM157.808 11.4V10.4H157.553L157.329 10.5221L157.808 11.4ZM156.912 12.2L156.167 11.5332L156.165 11.5356L156.912 12.2ZM155.984 13.928L155.043 13.5884L154.984 13.753V13.928H155.984ZM155.984 23.432H154.984V24.337L155.884 24.427L155.984 23.432ZM157.264 23.688L156.977 24.6458L156.999 24.6525L157.021 24.6581L157.264 23.688ZM158.544 24.2H159.544V23.6087L159.026 23.3238L158.544 24.2ZM158.544 25V26H159.544V25H158.544ZM150.992 25H149.992V26H150.992V25ZM150.992 24.2L150.506 23.3258L149.992 23.6116V24.2H150.992ZM152.08 23.72L151.782 22.7655L152.08 23.72ZM153.104 23.432L153.347 24.4021L154.104 24.2128V23.432H153.104ZM153.104 10.856H154.104V9.96989L153.224 9.86327L153.104 10.856ZM150.992 10.6H149.992V11.4861L150.872 11.5927L150.992 10.6ZM150.992 9.768L150.591 8.85184L149.992 9.11398V9.768H150.992ZM153.104 9.064L153.333 10.0374L153.347 10.0342L153.36 10.0307L153.104 9.064ZM155.184 8.616V7.616H155.104L155.025 7.62876L155.184 8.616ZM155.984 8.616H156.984V7.616H155.984V8.616ZM155.984 12.008H154.984V13.008H155.984V12.008ZM156.112 12.008V13.008H156.759L157.024 12.4184L156.112 12.008ZM156.912 10.728L156.15 10.0804L156.14 10.0917L156.131 10.1033L156.912 10.728ZM158.128 9.576L157.54 8.76726L157.531 8.77382L157.522 8.78057L158.128 9.576ZM159.632 8.808L159.937 9.76042L159.948 9.75683L159.959 9.75299L159.632 8.808ZM161.328 8.616L162.208 8.1419L161.96 7.68004L161.438 7.62212L161.328 8.616ZM161.712 9.544L160.758 9.84227L160.769 9.87934L160.784 9.91539L161.712 9.544ZM162.064 10.568H163.064V10.424L163.023 10.2858L162.064 10.568ZM162.064 11.4V12.4H163.064V11.4H162.064ZM157.329 10.5221C156.936 10.7363 156.544 11.1121 156.167 11.5332L157.657 12.8668C158.006 12.4772 158.21 12.3197 158.287 12.2779L157.329 10.5221ZM156.165 11.5356C155.704 12.054 155.341 12.763 155.043 13.5884L156.925 14.2676C157.181 13.557 157.437 13.114 157.659 12.8644L156.165 11.5356ZM154.984 13.928V23.432H156.984V13.928H154.984ZM155.884 24.427C156.245 24.4631 156.609 24.5355 156.977 24.6458L157.551 22.7302C157.066 22.5845 156.576 22.4862 156.084 22.437L155.884 24.427ZM157.021 24.6581C157.356 24.7418 157.703 24.8786 158.062 25.0762L159.026 23.3238C158.532 23.052 158.025 22.8475 157.507 22.7179L157.021 24.6581ZM157.544 24.2V25H159.544V24.2H157.544ZM158.544 24H150.992V26H158.544V24ZM151.992 25V24.2H149.992V25H151.992ZM151.478 25.0742C151.815 24.8867 152.115 24.7568 152.378 24.6745L151.782 22.7655C151.363 22.8965 150.937 23.0866 150.506 23.3258L151.478 25.0742ZM152.378 24.6745C152.701 24.5735 153.024 24.4827 153.347 24.4021L152.861 22.4619C152.501 22.5519 152.141 22.6532 151.782 22.7655L152.378 24.6745ZM154.104 23.432V10.856H152.104V23.432H154.104ZM153.224 9.86327L151.112 9.60727L150.872 11.5927L152.984 11.8487L153.224 9.86327ZM151.992 10.6V9.768H149.992V10.6H151.992ZM151.393 10.6842C152.02 10.4097 152.667 10.1942 153.333 10.0374L152.875 8.09058C152.091 8.2751 151.329 8.52893 150.591 8.85184L151.393 10.6842ZM153.36 10.0307C154.057 9.84615 154.718 9.70408 155.343 9.60324L155.025 7.62876C154.327 7.74125 153.602 7.89784 152.848 8.09729L153.36 10.0307ZM155.184 9.616H155.984V7.616H155.184V9.616ZM154.984 8.616V12.008H156.984V8.616H154.984ZM155.984 13.008H156.112V11.008H155.984V13.008ZM157.024 12.4184C157.176 12.0799 157.396 11.7244 157.693 11.3527L156.131 10.1033C155.746 10.5849 155.432 11.0828 155.2 11.5976L157.024 12.4184ZM157.674 11.3756C157.99 11.004 158.343 10.6695 158.734 10.3714L157.522 8.78057C157.017 9.16517 156.56 9.59865 156.15 10.0804L157.674 11.3756ZM158.716 10.3847C159.102 10.1038 159.509 9.89743 159.937 9.76042L159.327 7.85557C158.689 8.0599 158.092 8.36554 157.54 8.76726L158.716 10.3847ZM159.959 9.75299C160.375 9.60894 160.791 9.56251 161.218 9.60988L161.438 7.62212C160.713 7.54149 159.998 7.62305 159.305 7.86301L159.959 9.75299ZM160.448 9.0901C160.563 9.30438 160.667 9.55376 160.758 9.84227L162.666 9.24572C162.543 8.85157 162.392 8.48228 162.208 8.1419L160.448 9.0901ZM160.784 9.91539C160.899 10.2035 161.006 10.5149 161.105 10.8502L163.023 10.2858C162.909 9.89581 162.781 9.52449 162.64 9.17261L160.784 9.91539ZM161.064 10.568V11.4H163.064V10.568H161.064ZM162.064 10.4H157.808V12.4H162.064V10.4ZM175.433 22.024L174.435 22.0864V22.0864L175.433 22.024ZM175.497 23.112L174.499 23.1675L174.544 23.9843L175.354 24.1017L175.497 23.112ZM177.705 23.432H178.705V22.5665L177.849 22.4423L177.705 23.432ZM177.705 24.104L178.167 24.9912L178.705 24.7111V24.104H177.705ZM175.913 24.84L175.606 23.8882L175.597 23.8913L175.913 24.84ZM174.057 25.32V26.32H174.146L174.233 26.3044L174.057 25.32ZM173.257 25.32L172.34 25.7187L172.602 26.32H173.257V25.32ZM172.873 23.72L171.876 23.7912L171.876 23.7939L172.873 23.72ZM172.777 21.768L173.777 21.7377L173.747 20.768H172.777V21.768ZM172.617 21.768V20.768H171.797L171.637 21.5719L172.617 21.768ZM172.105 23.08L171.237 22.5839L171.233 22.5909L171.229 22.5981L172.105 23.08ZM171.145 24.232L170.501 23.4671L170.491 23.4757L170.481 23.4846L171.145 24.232ZM169.769 25.064L170.141 25.9925L169.769 25.064ZM164.745 24.2L164.048 24.9165L164.057 24.9255L164.745 24.2ZM164.105 18.696L163.26 18.1609L163.256 18.1686L164.105 18.696ZM165.865 17.192L165.438 16.2878L165.865 17.192ZM168.713 16.424L168.844 17.4154L168.853 17.4142L168.863 17.4128L168.713 16.424ZM172.649 16.04L172.706 17.0384L173.565 16.9893L173.645 16.1326L172.649 16.04ZM172.713 13.576L171.714 13.6046L171.714 13.6196L171.715 13.6347L172.713 13.576ZM172.361 11.688L171.42 12.0267L171.429 12.0499L171.438 12.0726L172.361 11.688ZM171.465 10.472L170.851 11.2614L170.875 11.2801L170.901 11.2973L171.465 10.472ZM168.905 10.088L168.964 11.0863L168.99 11.0847L169.016 11.0819L168.905 10.088ZM167.817 10.344L167.437 9.41932L167.042 9.58185L166.886 9.97931L167.817 10.344ZM166.313 14.184V15.184H166.996L167.244 14.5487L166.313 14.184ZM165.481 14.184L164.533 14.5002L164.76 15.184H165.481V14.184ZM164.905 12.2L163.928 12.4137L163.932 12.4282L163.935 12.4425L164.905 12.2ZM164.617 10.184L164.099 9.3285L163.58 9.64275L163.619 10.2484L164.617 10.184ZM167.305 9.032L167.039 8.06817L167.033 8.06969L167.305 9.032ZM173.225 9.096L172.778 9.99043L172.796 9.99925L172.814 10.0074L173.225 9.096ZM175.465 17.416L174.467 17.3625L174.466 17.3711L174.466 17.3797L175.465 17.416ZM170.633 23.08L170.168 22.1951L170.633 23.08ZM171.657 22.312L170.924 21.6315L171.657 22.312ZM172.329 21.416L173.197 21.9121L173.205 21.8995L173.212 21.8866L172.329 21.416ZM172.681 20.616L173.639 20.9033L173.681 20.7628V20.616H172.681ZM172.681 17.256H173.681V16.256H172.681V17.256ZM169.641 17.448L169.481 16.4609L169.641 17.448ZM166.857 19.112L167.779 19.5001L167.782 19.4918L167.786 19.4834L166.857 19.112ZM167.305 22.664L166.568 23.3397L166.575 23.3476L166.583 23.3552L167.305 22.664ZM174.401 20.808C174.401 21.2911 174.412 21.7183 174.435 22.0864L176.431 21.9616C176.412 21.6471 176.401 21.2636 176.401 20.808H174.401ZM174.435 22.0864C174.456 22.4251 174.478 22.7855 174.499 23.1675L176.496 23.0565C176.474 22.6705 176.453 22.3055 176.431 21.9616L174.435 22.0864ZM175.354 24.1017L177.562 24.4217L177.849 22.4423L175.641 22.1223L175.354 24.1017ZM176.705 23.432V24.104H178.705V23.432H176.705ZM177.244 23.2168C176.767 23.4647 176.222 23.6895 175.606 23.8883L176.22 25.7917C176.927 25.5638 177.577 25.2979 178.167 24.9912L177.244 23.2168ZM175.597 23.8913C174.998 24.091 174.426 24.2383 173.881 24.3356L174.233 26.3044C174.883 26.1884 175.549 26.0156 176.229 25.7887L175.597 23.8913ZM174.057 24.32H173.257V26.32H174.057V24.32ZM174.174 24.9213C174.009 24.5415 173.906 24.119 173.871 23.6461L171.876 23.7939C171.926 24.473 172.079 25.1172 172.34 25.7187L174.174 24.9213ZM173.871 23.6488C173.829 23.0672 173.798 22.4303 173.777 21.7377L171.778 21.7983C171.799 22.5137 171.832 23.1782 171.876 23.7912L173.871 23.6488ZM172.777 20.768H172.617V22.768H172.777V20.768ZM171.637 21.5719C171.576 21.8757 171.449 22.2123 171.237 22.5839L172.973 23.5761C173.273 23.0517 173.488 22.5137 173.598 21.9641L171.637 21.5719ZM171.229 22.5981C171.059 22.9078 170.821 23.198 170.501 23.4671L171.789 24.9969C172.281 24.5833 172.682 24.1055 172.981 23.5619L171.229 22.5981ZM170.481 23.4846C170.193 23.7406 169.836 23.9601 169.398 24.1355L170.141 25.9925C170.769 25.7412 171.33 25.4061 171.81 24.9794L170.481 23.4846ZM169.398 24.1355C169.003 24.2936 168.524 24.384 167.945 24.384V26.384C168.732 26.384 169.469 26.2611 170.141 25.9925L169.398 24.1355ZM167.945 24.384C166.863 24.384 166.054 24.0635 165.434 23.4745L164.057 24.9255C165.1 25.9151 166.425 26.384 167.945 26.384V24.384ZM165.443 23.4835C164.852 22.9079 164.529 22.1449 164.529 21.096H162.529C162.529 22.6071 163.018 23.9135 164.048 24.9165L165.443 23.4835ZM164.529 21.096C164.529 20.2382 164.698 19.6377 164.955 19.2234L163.256 18.1686C162.745 18.9917 162.529 19.9911 162.529 21.096H164.529ZM164.95 19.2311C165.242 18.7701 165.674 18.3881 166.292 18.0962L165.438 16.2878C164.52 16.7213 163.779 17.3419 163.26 18.1609L164.95 19.2311ZM166.292 18.0962C166.941 17.79 167.783 17.5555 168.844 17.4154L168.582 15.4326C167.382 15.5912 166.326 15.8687 165.438 16.2878L166.292 18.0962ZM168.863 17.4128C169.955 17.2479 171.235 17.1224 172.706 17.0384L172.592 15.0416C171.077 15.1282 169.733 15.2588 168.564 15.4352L168.863 17.4128ZM173.645 16.1326C173.734 15.1776 173.758 14.3043 173.712 13.5173L171.715 13.6347C171.754 14.2983 171.735 15.0677 171.654 15.9474L173.645 16.1326ZM173.713 13.5474C173.689 12.7182 173.558 11.9601 173.284 11.3034L171.438 12.0726C171.591 12.4399 171.695 12.9405 171.714 13.6046L173.713 13.5474ZM173.302 11.3493C173.05 10.6498 172.634 10.0603 172.03 9.64669L170.901 11.2973C171.107 11.4384 171.288 11.6595 171.42 12.0267L173.302 11.3493ZM172.079 9.68265C171.471 9.20978 170.721 9.024 169.929 9.024V11.024C170.417 11.024 170.691 11.1369 170.851 11.2614L172.079 9.68265ZM169.929 9.024C169.585 9.024 169.205 9.04849 168.795 9.09412L169.016 11.0819C169.373 11.0422 169.676 11.024 169.929 11.024V9.024ZM168.847 9.08972C168.365 9.11807 167.894 9.23114 167.437 9.41932L168.198 11.2687C168.466 11.1582 168.72 11.1006 168.964 11.0863L168.847 9.08972ZM166.886 9.97931L165.382 13.8193L167.244 14.5487L168.748 10.7087L166.886 9.97931ZM166.313 13.184H165.481V15.184H166.313V13.184ZM166.43 13.8678C166.225 13.2531 166.04 12.6164 165.875 11.9575L163.935 12.4425C164.112 13.149 164.311 13.8349 164.533 14.5002L166.43 13.8678ZM165.882 11.9863C165.743 11.3502 165.654 10.7281 165.615 10.1196L163.619 10.2484C163.665 10.9626 163.769 11.6845 163.928 12.4137L165.882 11.9863ZM165.135 11.0395C165.863 10.5987 166.676 10.2491 167.577 9.99431L167.033 8.06969C165.972 8.36958 164.993 8.78796 164.099 9.3285L165.135 11.0395ZM167.572 9.99581C168.475 9.74614 169.493 9.616 170.633 9.616V7.616C169.342 7.616 168.141 7.7632 167.039 8.06819L167.572 9.99581ZM170.633 9.616C171.64 9.616 172.33 9.76661 172.778 9.99043L173.672 8.20157C172.84 7.78539 171.803 7.616 170.633 7.616V9.616ZM172.814 10.0074C173.346 10.2476 173.69 10.5376 173.908 10.8511L175.55 9.70893C175.086 9.0411 174.428 8.54174 173.637 8.18463L172.814 10.0074ZM173.908 10.8511C174.166 11.2215 174.335 11.6302 174.417 12.0878L176.386 11.7362C176.254 10.9991 175.975 10.3199 175.55 9.70893L173.908 10.8511ZM174.417 12.0878C174.513 12.628 174.561 13.1665 174.561 13.704H176.561C176.561 13.0468 176.503 12.3906 176.386 11.7362L174.417 12.0878ZM174.561 13.704C174.561 14.9674 174.53 16.1868 174.467 17.3625L176.464 17.4695C176.529 16.2558 176.561 15.0006 176.561 13.704H174.561ZM174.466 17.3797C174.423 18.5642 174.401 19.707 174.401 20.808H176.401C176.401 19.733 176.422 18.6145 176.465 17.4523L174.466 17.3797ZM169.225 24.4C169.894 24.4 170.528 24.2654 171.099 23.9649L170.168 22.1951C169.928 22.3213 169.623 22.4 169.225 22.4V24.4ZM171.099 23.9649C171.592 23.7054 172.027 23.3834 172.39 22.9925L170.924 21.6315C170.733 21.8379 170.485 22.0279 170.168 22.1951L171.099 23.9649ZM172.39 22.9925C172.71 22.6477 172.983 22.2881 173.197 21.9121L171.461 20.9199C171.335 21.1412 171.159 21.379 170.924 21.6315L172.39 22.9925ZM173.212 21.8866C173.397 21.5397 173.548 21.207 173.639 20.9033L171.723 20.3287C171.687 20.4517 171.603 20.6523 171.447 20.9454L173.212 21.8866ZM173.681 20.616V17.256H171.681V20.616H173.681ZM172.681 16.256C171.416 16.256 170.344 16.321 169.481 16.4609L169.801 18.4351C170.517 18.319 171.472 18.256 172.681 18.256V16.256ZM169.481 16.4609C168.623 16.6001 167.861 16.8328 167.259 17.2057L168.312 18.9063C168.605 18.7245 169.081 18.5519 169.801 18.4351L169.481 16.4609ZM167.259 17.2057C166.657 17.5784 166.19 18.0871 165.929 18.7406L167.786 19.4834C167.866 19.2835 168.018 19.0882 168.312 18.9063L167.259 17.2057ZM165.936 18.7239C165.703 19.2753 165.601 19.8811 165.601 20.52H167.601C167.601 20.0923 167.67 19.7594 167.779 19.5001L165.936 18.7239ZM165.601 20.52C165.601 21.6054 165.881 22.5906 166.568 23.3397L168.042 21.9883C167.79 21.7134 167.601 21.2692 167.601 20.52H165.601ZM166.583 23.3552C167.277 24.0809 168.199 24.4 169.225 24.4V22.4C168.63 22.4 168.272 22.2284 168.028 21.9728L166.583 23.3552ZM186.245 11.4V10.4H185.991L185.767 10.5221L186.245 11.4ZM185.35 12.2L184.604 11.5332L184.602 11.5356L185.35 12.2ZM184.421 13.928L183.481 13.5884L183.421 13.753V13.928H184.421ZM184.421 23.432H183.421V24.337L184.322 24.427L184.421 23.432ZM185.702 23.688L185.414 24.6458L185.436 24.6525L185.459 24.6581L185.702 23.688ZM186.982 24.2H187.982V23.6087L187.463 23.3238L186.982 24.2ZM186.982 25V26H187.982V25H186.982ZM179.43 25H178.43V26H179.43V25ZM179.43 24.2L178.944 23.3258L178.43 23.6116V24.2H179.43ZM180.518 23.72L180.219 22.7655L180.518 23.72ZM181.542 23.432L181.784 24.4021L182.542 24.2128V23.432H181.542ZM181.542 10.856H182.542V9.96989L181.662 9.86327L181.542 10.856ZM179.43 10.6H178.43V11.4861L179.309 11.5927L179.43 10.6ZM179.43 9.768L179.029 8.85184L178.43 9.11398V9.768H179.43ZM181.542 9.064L181.771 10.0374L181.784 10.0342L181.797 10.0307L181.542 9.064ZM183.622 8.616V7.616H183.541L183.462 7.62876L183.622 8.616ZM184.421 8.616H185.421V7.616H184.421V8.616ZM184.421 12.008H183.421V13.008H184.421V12.008ZM184.549 12.008V13.008H185.196L185.461 12.4184L184.549 12.008ZM185.35 10.728L184.588 10.0804L184.578 10.0917L184.569 10.1033L185.35 10.728ZM186.566 9.576L185.977 8.76726L185.968 8.77382L185.959 8.78057L186.566 9.576ZM188.07 8.808L188.374 9.76042L188.385 9.75683L188.397 9.75299L188.07 8.808ZM189.766 8.616L190.646 8.1419L190.397 7.68004L189.876 7.62212L189.766 8.616ZM190.15 9.544L189.195 9.84227L189.207 9.87934L189.221 9.91539L190.15 9.544ZM190.501 10.568H191.501V10.424L191.461 10.2858L190.501 10.568ZM190.501 11.4V12.4H191.501V11.4H190.501ZM185.767 10.5221C185.374 10.7363 184.981 11.1121 184.604 11.5332L186.095 12.8668C186.443 12.4772 186.648 12.3197 186.724 12.2779L185.767 10.5221ZM184.602 11.5356C184.141 12.054 183.779 12.763 183.481 13.5884L185.362 14.2676C185.619 13.557 185.875 13.114 186.097 12.8644L184.602 11.5356ZM183.421 13.928V23.432H185.421V13.928H183.421ZM184.322 24.427C184.683 24.4631 185.046 24.5355 185.414 24.6458L185.989 22.7302C185.503 22.5845 185.014 22.4862 184.521 22.437L184.322 24.427ZM185.459 24.6581C185.794 24.7418 186.14 24.8786 186.5 25.0762L187.463 23.3238C186.969 23.052 186.463 22.8475 185.944 22.7179L185.459 24.6581ZM185.982 24.2V25H187.982V24.2H185.982ZM186.982 24H179.43V26H186.982V24ZM180.43 25V24.2H178.43V25H180.43ZM179.915 25.0742C180.253 24.8867 180.552 24.7568 180.816 24.6745L180.219 22.7655C179.8 22.8965 179.374 23.0866 178.944 23.3258L179.915 25.0742ZM180.816 24.6745C181.139 24.5735 181.462 24.4827 181.784 24.4021L181.299 22.4619C180.939 22.5519 180.579 22.6532 180.219 22.7655L180.816 24.6745ZM182.542 23.432V10.856H180.542V23.432H182.542ZM181.662 9.86327L179.55 9.60727L179.309 11.5927L181.421 11.8487L181.662 9.86327ZM180.43 10.6V9.768H178.43V10.6H180.43ZM179.83 10.6842C180.458 10.4097 181.104 10.1942 181.771 10.0374L181.312 8.09058C180.528 8.2751 179.767 8.52893 179.029 8.85184L179.83 10.6842ZM181.797 10.0307C182.495 9.84615 183.156 9.70408 183.781 9.60324L183.462 7.62876C182.765 7.74125 182.039 7.89784 181.286 8.09729L181.797 10.0307ZM183.622 9.616H184.421V7.616H183.622V9.616ZM183.421 8.616V12.008H185.421V8.616H183.421ZM184.421 13.008H184.549V11.008H184.421V13.008ZM185.461 12.4184C185.614 12.0799 185.833 11.7244 186.13 11.3527L184.569 10.1033C184.183 10.5849 183.869 11.0828 183.638 11.5976L185.461 12.4184ZM186.111 11.3756C186.427 11.004 186.78 10.6695 187.172 10.3714L185.959 8.78057C185.455 9.16517 184.997 9.59865 184.588 10.0804L186.111 11.3756ZM187.154 10.3847C187.54 10.1038 187.946 9.89743 188.374 9.76042L187.765 7.85557C187.126 8.0599 186.53 8.36554 185.977 8.76726L187.154 10.3847ZM188.397 9.75299C188.813 9.60894 189.229 9.56251 189.655 9.60988L189.876 7.62212C189.15 7.54149 188.436 7.62305 187.742 7.86301L188.397 9.75299ZM188.885 9.0901C189 9.30438 189.105 9.55376 189.195 9.84227L191.104 9.24572C190.981 8.85157 190.829 8.48228 190.646 8.1419L188.885 9.0901ZM189.221 9.91539C189.336 10.2035 189.444 10.5149 189.542 10.8502L191.461 10.2858C191.346 9.89581 191.219 9.52449 191.078 9.17261L189.221 9.91539ZM189.501 10.568V11.4H191.501V10.568H189.501ZM190.501 10.4H186.245V12.4H190.501V10.4ZM192.594 10.6L193.502 10.1804L193.305 9.75463L192.852 9.63376L192.594 10.6ZM191.698 10.28L191.251 11.1744L191.265 11.1814L191.279 11.188L191.698 10.28ZM190.898 9.832H189.898V10.3908L190.374 10.6837L190.898 9.832ZM190.898 9V8H189.898V9H190.898ZM197.586 9H198.586V8H197.586V9ZM197.586 9.8L198.141 10.632L198.586 10.3352V9.8H197.586ZM195.762 10.6L195.47 9.64365L194.4 9.97044L194.844 10.9969L195.762 10.6ZM199.858 20.072L200.814 19.779L200.798 19.726L200.776 19.6751L199.858 20.072ZM200.466 22.056L199.51 22.349L199.727 23.056H200.466V22.056ZM200.53 22.056V23.056H201.32L201.503 22.2876L200.53 22.056ZM201.01 20.04L200.058 19.7335L200.046 19.7705L200.037 19.8084L201.01 20.04ZM204.05 10.6L205.002 10.9065L205.346 9.8393L204.246 9.61942L204.05 10.6ZM202.29 9.832H201.29V10.3442L201.706 10.6435L202.29 9.832ZM202.29 9V8H201.29V9H202.29ZM207.762 9H208.762V8H207.762V9ZM207.762 9.832L208.317 10.664L208.762 10.3672V9.832H207.762ZM205.938 10.6L205.67 9.63648L205.165 9.77687L204.993 10.2725L205.938 10.6ZM200.946 25L201.882 25.3511L201.887 25.3394L201.891 25.3275L200.946 25ZM199.474 28.296L198.603 27.8047L198.596 27.8178L198.589 27.8312L199.474 28.296ZM198.098 30.312L197.375 29.6208L197.367 29.6292L197.36 29.6377L198.098 30.312ZM196.69 31.368L196.291 30.4509L196.267 30.4616L196.243 30.4736L196.69 31.368ZM195.154 31.88L194.289 32.381L194.645 32.9963L195.343 32.862L195.154 31.88ZM194.514 30.536L193.57 30.8645L193.576 30.8826L193.583 30.9004L194.514 30.536ZM194.066 29.128L193.187 28.6517L192.992 29.0104L193.104 29.4027L194.066 29.128ZM194.482 28.36V27.36H193.886L193.603 27.8837L194.482 28.36ZM197.81 28.36V29.36H198.31L198.61 28.96L197.81 28.36ZM198.13 27.848L197.316 27.2668L197.271 27.3306L197.236 27.4008L198.13 27.848ZM198.802 26.376L199.745 26.7088L198.802 26.376ZM199.25 25L200.206 25.2941L200.318 24.9281L200.158 24.5804L199.25 25ZM192.852 9.63376C192.582 9.56197 192.338 9.47411 192.117 9.37204L191.279 11.188C191.612 11.3419 191.966 11.4674 192.336 11.5662L192.852 9.63376ZM192.145 9.38557C191.919 9.27233 191.678 9.13768 191.422 8.98034L190.374 10.6837C190.673 10.8677 190.965 11.0317 191.251 11.1744L192.145 9.38557ZM191.898 9.832V9H189.898V9.832H191.898ZM190.898 10H197.586V8H190.898V10ZM196.586 9V9.8H198.586V9H196.586ZM197.031 8.96795C196.694 9.19313 196.186 9.4249 195.47 9.64365L196.054 11.5564C196.874 11.3058 197.582 11.0042 198.141 10.632L197.031 8.96795ZM194.844 10.9969L198.94 20.4689L200.776 19.6751L196.68 10.2031L194.844 10.9969ZM198.902 20.365L199.51 22.349L201.422 21.763L200.814 19.779L198.902 20.365ZM200.466 23.056H200.53V21.056H200.466V23.056ZM201.503 22.2876L201.983 20.2716L200.037 19.8084L199.557 21.8244L201.503 22.2876ZM201.962 20.3465L205.002 10.9065L203.098 10.2935L200.058 19.7335L201.962 20.3465ZM204.246 9.61942C203.747 9.51961 203.293 9.32165 202.874 9.02046L201.706 10.6435C202.354 11.1103 203.073 11.4244 203.854 11.5806L204.246 9.61942ZM203.29 9.832V9H201.29V9.832H203.29ZM202.29 10H207.762V8H202.29V10ZM206.762 9V9.832H208.762V9H206.762ZM207.207 8.99995C206.879 9.21893 206.38 9.43923 205.67 9.63648L206.206 11.5635C207.032 11.3341 207.749 11.0424 208.317 10.664L207.207 8.99995ZM204.993 10.2725L200.001 24.6725L201.891 25.3275L206.883 10.9275L204.993 10.2725ZM200.01 24.6489C199.507 25.9882 199.037 27.0345 198.603 27.8047L200.345 28.7873C200.849 27.8935 201.361 26.7425 201.882 25.3511L200.01 24.6489ZM198.589 27.8312C198.167 28.6334 197.759 29.2193 197.375 29.6208L198.821 31.0032C199.375 30.4234 199.885 29.6652 200.359 28.7608L198.589 27.8312ZM197.36 29.6377C196.984 30.0489 196.626 30.3056 196.291 30.4509L197.089 32.2851C197.736 32.0038 198.316 31.5564 198.836 30.9863L197.36 29.6377ZM196.243 30.4736C195.861 30.6644 195.437 30.8073 194.965 30.898L195.343 32.862C195.98 32.7394 196.58 32.5409 197.137 32.2624L196.243 30.4736ZM196.019 31.379C195.813 31.0225 195.621 30.6209 195.445 30.1716L193.583 30.9004C193.791 31.4325 194.026 31.9269 194.289 32.381L196.019 31.379ZM195.458 30.2075C195.293 29.7326 195.15 29.2813 195.028 28.8533L193.104 29.4027C193.238 29.8707 193.393 30.3581 193.57 30.8645L195.458 30.2075ZM194.945 29.6043L195.361 28.8363L193.603 27.8837L193.187 28.6517L194.945 29.6043ZM194.482 29.36H197.81V27.36H194.482V29.36ZM198.61 28.96C198.77 28.7469 198.909 28.5254 199.024 28.2952L197.236 27.4008C197.18 27.5119 197.106 27.6318 197.01 27.76L198.61 28.96ZM198.944 28.4292C199.1 28.211 199.237 27.9577 199.36 27.6858L197.54 26.8582C197.45 27.0557 197.374 27.1863 197.316 27.2668L198.944 28.4292ZM199.36 27.6858C199.483 27.4152 199.612 27.087 199.745 26.7088L197.859 26.0432C197.736 26.3903 197.63 26.6595 197.54 26.8582L199.36 27.6858ZM199.745 26.7088C199.879 26.3287 200.033 25.8559 200.206 25.2941L198.294 24.7059C198.126 25.2534 197.981 25.698 197.859 26.0432L199.745 26.7088ZM200.158 24.5804L193.502 10.1804L191.686 11.0196L198.342 25.4196L200.158 24.5804Z" fill="url(#paint0_linear_90_102)"/>
<defs>
<linearGradient id="paint0_linear_90_102" x1="104" y1="-6" x2="104" y2="31" gradientUnits="userSpaceOnUse">
<stop stop-color="#F8F8F8"/>
<stop offset="0.0001"/>
<stop offset="1" stop-color="#27343C"/>
</linearGradient>
</defs>
</svg>
